<?xml version="1.0" encoding="UTF-8" standalone="no"?>
<!-- Created with Inkscape (http://www.inkscape.org/) -->

<svg
   width="1000"
   height="400"
   viewBox="0 0 264.58333 105.83333"
   version="1.1"
   id="svg5"
   xml:space="preserve"
   inkscape:version="1.2 (dc2aedaf03, 2022-05-15)"
   sodipodi:docname="shopping.svg"
   xmlns:inkscape="http://www.inkscape.org/namespaces/inkscape"
   xmlns:sodipodi="http://sodipodi.sourceforge.net/DTD/sodipodi-0.dtd"
   xmlns="http://www.w3.org/2000/svg"
   xmlns:svg="http://www.w3.org/2000/svg"><sodipodi:namedview
     id="namedview7"
     pagecolor="#005189"
     bordercolor="#000000"
     borderopacity="0.25"
     inkscape:showpageshadow="2"
     inkscape:pageopacity="0"
     inkscape:pagecheckerboard="0"
     inkscape:deskcolor="#d1d1d1"
     inkscape:document-units="px"
     showgrid="false"
     inkscape:zoom="0.51613799"
     inkscape:cx="313.86955"
     inkscape:cy="488.24153"
     inkscape:window-width="1920"
     inkscape:window-height="1057"
     inkscape:window-x="-8"
     inkscape:window-y="-8"
     inkscape:window-maximized="1"
     inkscape:current-layer="g6120" /><defs
     id="defs2"><clipPath
       clipPathUnits="userSpaceOnUse"
       id="clipPath358"><rect
         style="fill:none;stroke:#000080;stroke-width:0.264583"
         id="rect360"
         width="166.8548"
         height="103.14659"
         x="55.618267"
         y="33.623772"
         rx="1.7528104"
         ry="1.5" /></clipPath></defs><g
     inkscape:label="Layer 1"
     inkscape:groupmode="layer"
     id="layer1"><g
       id="g6120"
       style="display:inline"
       inkscape:label="laptop"
       inkscape:groupmode="layer"
       transform="translate(59.976693,-27.168929)"><path
         style="display:inline;fill:#81afd3;fill-opacity:1;stroke-width:0.171922"
         d="m 173.91299,102.4875 c 0.42114,-0.21275 0.9404,-0.6497 1.15392,-0.97099 l 0.38821,-0.58418 V 71.412659 41.892957 l -0.38821,-0.584172 c -0.21352,-0.321293 -0.73278,-0.75824 -1.15392,-0.970994 l -0.76571,-0.386824 H 125.94164 78.736022 l -0.757032,0.386824 c -0.416367,0.212754 -0.91629,0.605251 -1.110939,0.872216 l -0.353908,0.485392 v 29.71726 29.717231 l 0.353908,0.48539 c 0.194649,0.26697 0.694572,0.65947 1.110939,0.87222 l 0.757032,0.38682 h 47.205618 47.20564 z m -54.12003,-3.731981 c -1.01985,-0.24862 -1.92707,-0.995134 -2.37281,-1.952488 -0.66648,-1.431454 -0.49939,-2.654298 0.52644,-3.85275 0.33133,-0.387079 0.60241,-0.749505 0.60241,-0.805392 0,-0.05589 -0.8467,-0.101612 -1.88155,-0.101612 -1.70344,0 -1.9241,-0.03662 -2.33104,-0.386825 -0.3719,-0.320049 -1.34011,-2.983594 -5.60885,-15.429982 -2.83765,-8.273737 -5.21534,-15.100586 -5.28377,-15.170775 -0.0684,-0.07019 -1.32029,0.02643 -2.78193,0.21471 -4.024519,0.518415 -4.462666,0.466907 -4.462666,-0.524637 0,-0.837059 0.380027,-0.974848 3.982476,-1.44393 4.00336,-0.521282 4.30704,-0.53032 4.65772,-0.138608 0.14815,0.165475 0.53709,1.074511 0.86433,2.020081 l 0.59498,1.719218 4.79276,0.125804 c 2.63601,0.06919 12.04269,0.09848 20.90372,0.06508 17.74592,-0.06689 16.81295,-0.121239 16.81118,0.979337 -0.001,0.798189 -3.03584,17.225847 -3.25904,17.642899 -0.10364,0.193656 -0.36028,0.390568 -0.5703,0.43758 -0.21003,0.04701 -7.18997,0.748765 -15.51098,1.559448 -8.32102,0.810682 -15.19903,1.543188 -15.28446,1.627787 -0.0923,0.09137 0.15688,1.046986 0.6137,2.353804 l 0.76905,2.199987 14.36011,0.08596 c 15.59619,0.09336 14.9286,0.04673 14.9286,1.042833 0,0.758433 -0.53921,1.020229 -2.10132,1.020229 -0.73541,0 -1.33712,0.06289 -1.33712,0.139757 0,0.07687 0.24162,0.366984 0.53694,0.644706 0.70487,0.662879 1.01036,1.413734 1.01036,2.483377 0,2.934755 -3.48644,4.578146 -5.75153,2.711075 -1.63397,-1.346841 -1.72714,-3.849531 -0.19651,-5.278215 0.2456,-0.229238 0.44654,-0.480673 0.44654,-0.558746 0,-0.07807 -3.32669,-0.141954 -7.39264,-0.141954 -4.06595,0 -7.39264,0.06538 -7.39264,0.145275 0,0.0799 0.16297,0.292656 0.36214,0.472785 1.00633,0.910099 1.41068,2.97498 0.80549,4.113354 -0.34005,0.639644 -1.10193,1.415791 -1.67982,1.711268 -0.60149,0.30755 -1.70109,0.43262 -2.36997,0.26956 z m -3.33971,-15.87067 c 0.13118,-0.158067 -0.0486,-0.99148 -0.64992,-3.013501 -0.45719,-1.537256 -0.94978,-3.091252 -1.09465,-3.453325 -0.22199,-0.554798 -1.02327,-3.230192 -3.05668,-10.205999 l -0.33827,-1.160472 h -1.54002 c -1.35585,0 -1.54002,0.03621 -1.54002,0.302816 0,0.222584 5.19697,16.060922 5.75338,17.534072 0.11133,0.294748 2.22113,0.291676 2.46618,-0.0036 z m 4.53164,-0.429406 c 0.17957,-0.179572 -4.67896,-16.913376 -5.03536,-17.342799 -0.20645,-0.248764 -1.33176,-0.304036 -2.44508,-0.120097 -0.78635,0.129919 -0.79928,-0.107601 0.19514,3.583402 0.58001,2.152808 3.8094,13.21543 4.08472,13.992643 0.0669,0.188777 0.39386,0.219606 1.55853,0.146945 0.81065,-0.05057 1.54957,-0.167617 1.64205,-0.260094 z m 4.22608,-0.30974 c 0.21275,-0.04424 0.38683,-0.178281 0.38683,-0.297859 0,-0.119581 -1.08446,-3.88964 -2.40991,-8.377914 -1.5421,-5.221893 -2.51352,-8.237882 -2.69765,-8.375398 -0.33402,-0.24947 -2.58859,-0.289543 -2.96299,-0.05266 -0.2068,0.130846 0.14743,1.496746 2.12835,8.206634 1.30704,4.427313 2.48114,8.307396 2.6091,8.622405 l 0.23265,0.572742 1.1634,-0.108751 c 0.63987,-0.05982 1.33747,-0.144952 1.55022,-0.189195 z m 4.08129,-0.387278 c 0.41821,-0.07418 0.70614,-0.227062 0.73786,-0.391787 0.0646,-0.335456 -4.55145,-15.958362 -4.80568,-16.264689 -0.21596,-0.260216 -2.66326,-0.308122 -3.05573,-0.05982 -0.20738,0.131204 0.14505,1.490029 2.12851,8.206635 1.30737,4.427167 2.44702,8.184783 2.53254,8.350257 0.16885,0.326686 1.15828,0.390732 2.4625,0.159399 z m 5.04804,-0.573608 c 0.24534,-0.09061 0.36814,-0.243558 0.31233,-0.389004 -0.0506,-0.131828 -1.1061,-3.666145 -2.34558,-7.854038 -1.23948,-4.187892 -2.33721,-7.715103 -2.43941,-7.838248 -0.21412,-0.257996 -2.6604,-0.312433 -3.04668,-0.06779 -0.14939,0.09461 -0.1996,0.301903 -0.13469,0.556113 0.49939,1.955829 4.61873,15.539872 4.7664,15.717808 0.20629,0.248559 2.09803,0.166776 2.88763,-0.124836 z m 4.72149,-0.476277 c 0.20593,-0.202151 -4.30723,-15.351767 -4.6515,-15.614008 -0.32318,-0.246176 -2.58047,-0.291208 -2.94744,-0.0588 -0.14869,0.09417 -0.19986,0.303096 -0.13618,0.556113 0.12049,0.478808 4.38498,14.909089 4.50877,15.256887 0.068,0.191201 0.38118,0.214462 1.58555,0.117777 0.82541,-0.06626 1.56377,-0.182349 1.6408,-0.257969 z m 3.38112,-0.27079 c 0.51828,-0.05915 0.98991,-0.184522 1.04806,-0.278603 0.11535,-0.18665 -0.29249,-1.679623 -2.62363,-9.604225 -0.84806,-2.88296 -1.62289,-5.339293 -1.72184,-5.458517 -0.11467,-0.13817 -0.63473,-0.216775 -1.43421,-0.216775 -1.35865,0 -1.79896,0.0993 -1.7968,0.405218 0.004,0.552115 4.45486,15.124933 4.65794,15.250445 0.13068,0.08076 0.39296,0.116049 0.58286,0.07842 0.1899,-0.03763 0.76933,-0.116813 1.28762,-0.175963 z m 2.57427,-6.317322 0.56564,-3.137574 -0.86827,-2.895955 c -0.47755,-1.592777 -0.89527,-2.922963 -0.92828,-2.955972 -0.11075,-0.110746 -3.06836,-0.127676 -3.17784,-0.01819 -0.0595,0.05949 0.0498,0.630951 0.24282,1.269921 0.19303,0.63897 0.97971,3.250613 1.74817,5.803652 0.76846,2.553039 1.43274,4.738595 1.47617,4.856791 0.21718,0.591031 0.42372,-0.05006 0.94159,-2.92267 z m 1.35942,-7.464292 c 0.30516,-1.519488 0.28416,-1.604584 -0.39592,-1.604584 -0.32537,0 -0.63029,0.06264 -0.67761,0.139191 -0.11322,0.183197 0.5777,2.439636 0.74701,2.439636 0.072,0 0.21891,-0.438409 0.32652,-0.974243 z"
         id="path6132"
         sodipodi:nodetypes="sscccsscccsscccsscccsssssssssssssscsscssssscssssssssssssssssssscssssssssssssssssssscsssssssssssssssssssssssscssssssscsssccssssssscsssss" /><path
         style="display:inline;fill:#0387bf;fill-opacity:1;stroke-width:0.171922"
         d="m 173.91299,102.4875 c 0.42114,-0.21275 0.9404,-0.6497 1.15392,-0.97099 l 0.38821,-0.58418 V 71.412659 41.892957 l -0.38821,-0.584172 c -0.21352,-0.321293 -0.73278,-0.75824 -1.15392,-0.970994 l -0.76571,-0.386824 H 125.94164 78.736022 l -0.757032,0.386824 c -0.416367,0.212754 -0.91629,0.605251 -1.110939,0.872216 l -0.353908,0.485392 v 29.71726 29.717231 l 0.353908,0.48539 c 0.194649,0.26697 0.694572,0.65947 1.110939,0.87222 l 0.757032,0.38682 h 47.205618 47.20564 z m -54.12003,-3.731981 c -1.01985,-0.24862 -1.92707,-0.995134 -2.37281,-1.952488 -0.66648,-1.431454 -0.49939,-2.654298 0.52644,-3.85275 0.33133,-0.387079 0.60241,-0.749505 0.60241,-0.805392 0,-0.05589 -0.8467,-0.101612 -1.88155,-0.101612 -1.70344,0 -1.9241,-0.03662 -2.33104,-0.386825 -0.3719,-0.320049 -1.34011,-2.983594 -5.60885,-15.429982 -2.83765,-8.273737 -5.21534,-15.100586 -5.28377,-15.170775 -0.0684,-0.07019 -1.32029,0.02643 -2.78193,0.21471 -4.024519,0.518415 -4.462666,0.466907 -4.462666,-0.524637 0,-0.837059 0.380027,-0.974848 3.982476,-1.44393 4.00336,-0.521282 4.30704,-0.53032 4.65772,-0.138608 0.14815,0.165475 0.53712,1.074511 0.8644,2.020081 l 0.59504,1.719218 2.37215,0.04802 c 1.30468,0.02641 2.42708,-0.01228 2.49422,-0.08596 0.0671,-0.07369 0.0181,-1.101044 -0.10904,-2.283006 -1.00773,-9.370287 -1.24272,-11.963823 -1.0972,-12.109349 0.17,-0.169993 27.27721,-3.049716 28.01721,-2.976395 0.41257,0.04088 0.43715,0.110793 0.61317,1.744245 0.16718,1.551538 0.22574,1.735454 0.66379,2.084743 l 0.48044,0.383085 0.66848,6.425385 c 0.36767,3.533963 0.70479,6.522093 0.74916,6.640289 0.0608,0.161974 0.91944,0.214902 3.48626,0.214902 3.84315,0 4.17049,0.08514 4.16889,1.084259 -0.001,0.798189 -3.03584,17.225847 -3.25904,17.642899 -0.10364,0.193656 -0.36028,0.390568 -0.5703,0.43758 -0.21003,0.04701 -7.18997,0.748765 -15.51098,1.559448 -8.32102,0.810682 -15.19903,1.543188 -15.28446,1.627787 -0.0923,0.09137 0.15688,1.046986 0.6137,2.353804 l 0.76905,2.199987 14.36011,0.08596 c 15.59619,0.09336 14.9286,0.04673 14.9286,1.042833 0,0.758433 -0.53921,1.020229 -2.10132,1.020229 -0.73541,0 -1.33712,0.06289 -1.33712,0.139757 0,0.07687 0.24162,0.366984 0.53694,0.644706 0.70487,0.662879 1.01036,1.413734 1.01036,2.48338 0,2.934755 -3.48644,4.578146 -5.75153,2.711075 -1.63397,-1.346841 -1.72714,-3.849534 -0.19651,-5.278218 0.2456,-0.229238 0.44654,-0.480673 0.44654,-0.558746 0,-0.07807 -3.32669,-0.141954 -7.39264,-0.141954 -4.06595,0 -7.39264,0.06538 -7.39264,0.145275 0,0.0799 0.16297,0.292656 0.36214,0.472785 1.00633,0.910099 1.41068,2.974983 0.80549,4.113357 -0.34005,0.639644 -1.10193,1.415791 -1.67982,1.711268 -0.60149,0.30755 -1.70109,0.43262 -2.36997,0.26956 z M 143.52058,80.13788 c 0.089,-0.267022 -0.47988,-2.18216 -0.71934,-2.421617 -0.23093,-0.23093 -0.0316,2.121051 0.20525,2.421428 0.21618,0.274196 0.42273,0.274272 0.51409,1.72e-4 z m -31.23637,-7.739636 c -0.33883,-3.331503 -0.69564,-6.347397 -0.79289,-6.701985 l -0.17684,-0.644707 h -1.54039 c -1.35238,0 -1.5404,0.03672 -1.5404,0.300836 0,0.568285 4.54636,13.884692 4.60662,13.492924 0.033,-0.214383 -0.21726,-3.115564 -0.5561,-6.447068 z m 32.73391,1.71716 0.56657,-3.142598 -0.45179,-1.499291 c -0.24848,-0.824611 -0.64988,-2.156893 -0.89199,-2.960628 l -0.44021,-1.461335 h -1.19305 -1.19305 l 5.2e-4,0.558746 c 0.002,1.688009 0.45525,3.977432 1.49087,7.521579 0.62168,2.127533 1.16393,3.926265 1.205,3.997182 0.22636,0.390815 0.39345,-0.1643 0.90716,-3.013655 z m 1.35848,-7.459268 c 0.30516,-1.519488 0.28416,-1.604584 -0.39592,-1.604584 -0.32537,0 -0.63029,0.06264 -0.67761,0.139191 -0.11322,0.183197 0.5777,2.439636 0.74701,2.439636 0.072,0 0.21891,-0.438409 0.32652,-0.974243 z m -17.22996,-4.288385 c 1.18116,-0.55878 2.31772,-1.702712 2.92945,-2.948456 0.43008,-0.87584 0.48391,-1.170285 0.47896,-2.61999 -0.003,-0.898292 -0.0658,-2.00074 -0.13948,-2.449886 -0.1284,-0.783142 -0.15727,-0.816629 -0.70403,-0.816629 -0.86433,0 -0.95511,0.225469 -0.75553,1.876355 0.0959,0.793543 0.12588,1.759761 0.0666,2.147151 -0.4525,2.954254 -3.80595,4.721241 -6.42467,3.385266 -1.61092,-0.821828 -2.35997,-2.091464 -2.62075,-4.442142 -0.0918,-0.827912 -0.20204,-1.602 -0.24487,-1.720196 -0.0885,-0.244121 -0.916,-0.284565 -1.26734,-0.06194 -0.37498,0.237605 0.0328,3.417417 0.6004,4.682296 0.50875,1.133635 1.92571,2.591508 2.92433,3.008759 1.64661,0.687998 3.6502,0.67223 5.15698,-0.04059 z"
         id="path6134"
         sodipodi:nodetypes="sscccsscccsscccsscccsssssssssssssscsccsssscssscssssscsssssssssssssssssssssscssssccssccccssccssssscsccsccsccscscc" /><path
         style="display:inline;fill:#000000;fill-opacity:1;stroke-width:0.171922"
         d="m 56.541769,126.52083 c -0.735981,-0.32014 -0.856137,-0.6165 -0.960355,-2.36864 l -0.08933,-1.50178 3.806076,-3.74398 c 8.650521,-8.50939 8.750934,-8.60272 9.73738,-9.05117 0.520063,-0.23642 1.442419,-0.50913 2.049679,-0.60602 1.362711,-0.21742 1.597518,-0.41279 0.918267,-0.76405 -0.73207,-0.37856 -1.55911,-1.38506 -1.676124,-2.03981 -0.05528,-0.30933 -0.07844,-16.27313 -0.05146,-35.475136 l 0.04905,-34.912738 0.426851,-0.622935 c 0.23477,-0.342614 0.737641,-0.80113 1.117492,-1.01892 l 0.690641,-0.395986 h 53.381704 53.38172 l 0.80012,0.470355 c 0.55656,0.327183 0.91018,0.697716 1.1617,1.217295 l 0.36159,0.74694 -0.0442,35.156778 -0.0442,35.156747 -0.4298,0.6279 c -0.23639,0.34534 -0.80418,0.83178 -1.26175,1.08097 -0.45757,0.24919 -0.76703,0.51329 -0.68769,0.58689 0.0794,0.0736 0.60612,0.26554 1.17062,0.42653 0.56449,0.16099 1.29946,0.43371 1.63325,0.60604 0.3338,0.17233 3.7015,3.05086 7.48378,6.39674 l 6.87687,6.0834 -0.0531,1.36694 c -0.0665,1.71224 -0.25962,2.21776 -0.9773,2.55832 -0.51409,0.24395 -7.19678,0.2693 -69.39757,0.26322 -58.119497,-0.006 -68.913512,-0.0436 -69.373891,-0.2439 z M 173.58131,103.01995 c 0.89961,-0.30513 1.50492,-0.79791 1.8777,-1.52863 0.33473,-0.65613 0.33995,-1.11789 0.33995,-30.078661 0,-29.168942 -0.003,-29.417961 -0.34724,-30.092974 -0.19098,-0.374356 -0.66885,-0.893486 -1.06194,-1.153623 l -0.71471,-0.472977 -47.29106,-0.05048 c -35.414149,-0.0378 -47.463749,-5.16e-4 -47.978727,0.14835 -0.958886,0.277241 -1.583411,0.76369 -1.980994,1.543017 -0.334738,0.656141 -0.339951,1.118061 -0.339951,30.12414 v 29.457758 l 0.492578,0.77671 c 0.435606,0.68688 0.928249,1.04849 1.914327,1.40516 0.141836,0.0513 21.46362,0.0994 47.381757,0.10685 35.16244,0.0101 47.27224,-0.0367 47.70831,-0.18464 z m -54.06006,-4.694438 c -0.85128,-0.30352 -1.45324,-0.864997 -1.85076,-1.726311 -0.61868,-1.340484 -0.34461,-2.625782 0.79539,-3.730198 0.5566,-0.539222 0.62249,-0.676096 0.43452,-0.902589 -0.17656,-0.212733 -0.61903,-0.266981 -2.17763,-0.266981 -1.63926,0 -2.00514,-0.04909 -2.25918,-0.303133 -0.16673,-0.166724 -2.34383,-6.259203 -4.83801,-13.538842 -5.79931,-16.926158 -5.84752,-17.061664 -6.10476,-17.160376 -0.11913,-0.04571 -1.60248,0.09307 -3.29634,0.308421 -1.971418,0.250633 -3.188002,0.335435 -3.380592,0.235643 -0.319827,-0.165723 -0.412987,-0.913809 -0.135177,-1.085508 0.259647,-0.160473 6.893129,-0.971898 7.477569,-0.914675 0.50222,0.04917 0.55035,0.129108 1.2107,2.010699 l 0.68769,1.959493 20.8885,0.03013 c 11.48867,0.01657 21.01627,0.08787 21.17242,0.158445 0.43889,0.198346 0.45598,0.571204 0.11119,2.425473 -0.17583,0.94557 -0.89173,4.843913 -1.5909,8.662982 -0.72789,3.975955 -1.36859,7.036947 -1.49905,7.161785 -0.15357,0.146962 -5.24291,0.70659 -15.61483,1.717019 -11.37274,1.10793 -15.45428,1.562414 -15.64489,1.742074 -0.22818,0.215079 -0.1814,0.465034 0.4062,2.170291 0.36525,1.059968 0.76746,2.178651 0.89382,2.485962 l 0.22973,0.558745 h 14.35197 c 12.81801,0 14.38084,0.02888 14.62212,0.270164 0.312,0.311995 0.32494,0.408207 0.1024,0.761367 -0.11818,0.187546 -0.59764,0.281328 -1.75787,0.343844 -1.34308,0.07237 -1.60444,0.133607 -1.65273,0.387247 -0.0328,0.17236 0.15998,0.484173 0.45055,0.72867 1.64512,1.384283 1.3507,4.299715 -0.53294,5.277249 -1.61205,0.836597 -3.6655,0.2362 -4.40306,-1.287371 -0.67175,-1.387644 -0.33126,-3.187412 0.76634,-4.050787 0.2588,-0.20357 0.42351,-0.483218 0.3893,-0.660956 -0.0558,-0.2899 -0.51372,-0.310734 -7.7552,-0.352844 -8.65899,-0.05036 -8.46841,-0.07994 -7.2881,1.131393 0.65786,0.675142 1.14955,1.661666 1.14798,2.303294 -0.003,1.38922 -1.06903,2.860831 -2.32386,3.209201 -0.87139,0.241917 -1.21661,0.231887 -2.03251,-0.059 z m 2.29357,-0.801017 c 1.22375,-0.687777 1.69418,-2.182198 1.07494,-3.41473 -1.20244,-2.393317 -4.85365,-1.48869 -4.85588,1.203102 -0.002,1.954211 2.07631,3.169682 3.78094,2.211628 z m -2.41943,-0.998034 c -0.39413,-0.394127 -0.50255,-0.656597 -0.50255,-1.216674 0,-0.560076 0.10842,-0.822544 0.50255,-1.216673 0.39413,-0.394131 0.65659,-0.502541 1.21667,-0.502541 0.90446,0 1.71922,0.723186 1.71922,1.525981 0,1.677587 -1.80256,2.543231 -2.93589,1.409907 z m 21.04421,1.127634 c 1.37294,-0.573647 1.96619,-2.124568 1.32182,-3.455656 -0.47441,-0.979998 -1.24639,-1.467475 -2.32392,-1.467475 -1.07753,0 -1.84951,0.487477 -2.32391,1.467475 -1.03008,2.127842 1.13075,4.37289 3.32601,3.455656 z m -2.09376,-1.059544 c -0.64754,-0.544867 -0.81089,-1.234684 -0.47994,-2.026761 0.2991,-0.715853 0.71944,-0.977217 1.5716,-0.977217 0.81315,0 1.22305,0.232589 1.56073,0.885591 0.85792,1.65901 -1.2231,3.321051 -2.65239,2.118387 z M 115.34987,83.283279 c 0.65168,-0.08396 1.24152,-0.244304 1.31075,-0.356318 0.13318,-0.215501 -0.54864,-2.686768 -1.80125,-6.528569 -1.17665,-3.608859 -2.63436,-8.645128 -2.84729,-9.837124 -0.10609,-0.59395 -0.30694,-1.25674 -0.44633,-1.472865 -0.23939,-0.371189 -0.34582,-0.390233 -1.92168,-0.343843 -1.55593,0.0458 -1.67179,0.0739 -1.72075,0.417263 -0.0626,0.438916 4.62447,14.680273 5.22502,15.875929 0.22948,0.456892 0.4621,1.089221 0.51692,1.405172 0.14062,0.810355 0.21186,1.005067 0.3654,0.998637 0.0739,-0.0031 0.66753,-0.07432 1.31921,-0.158282 z m 5.73605,-0.752031 c 0.17864,-0.17864 -0.21767,-1.703255 -2.11051,-8.119152 -1.28175,-4.344564 -2.44982,-8.266692 -2.5957,-8.715837 l -0.26525,-0.816629 h -1.62483 c -1.23764,0 -1.64695,0.05762 -1.71762,0.241791 -0.051,0.132985 0.14789,1.119386 0.44206,2.192003 1.03265,3.765315 4.34377,15.019733 4.51344,15.341048 0.15552,0.294512 0.30974,0.314151 1.65498,0.210748 0.82786,-0.06364 1.58069,-0.211233 1.70343,-0.333972 z m 3.70526,-0.207145 c 0.45466,-0.05744 0.86452,-0.203131 0.9108,-0.323751 0.0672,-0.175109 -3.59368,-12.921372 -4.68272,-16.304093 l -0.26291,-0.816629 h -1.7108 c -1.21008,0 -1.73491,0.0629 -1.79318,0.214902 -0.10389,0.271006 4.80777,16.908463 5.0932,17.252382 0.14807,0.178413 0.41975,0.228221 0.9148,0.167708 0.38729,-0.04734 1.07616,-0.133075 1.53081,-0.190519 z m 5.20243,-0.538495 c 0.13534,-0.05194 0.24607,-0.216126 0.24607,-0.364871 0,-0.415903 -4.65876,-16.082129 -4.85503,-16.326205 -0.24705,-0.307236 -3.37559,-0.299372 -3.49384,0.0088 -0.0472,0.123025 0.25742,1.380203 0.67695,2.793729 0.41954,1.413526 1.47036,4.968355 2.33516,7.899622 0.8648,2.931267 1.65905,5.551886 1.765,5.823597 l 0.19264,0.494022 1.44348,-0.117123 c 0.79392,-0.06442 1.55423,-0.159618 1.68957,-0.211554 z m 4.02835,-0.384434 c 0.41606,-0.08091 0.61656,-0.220951 0.6498,-0.453855 0.0368,-0.257991 -3.42913,-12.335165 -4.4508,-15.508943 L 130.0411,64.87963 h -1.71128 c -1.2463,0 -1.73461,0.06078 -1.79712,0.223693 -0.11714,0.305247 4.64513,16.288753 4.90017,16.446381 0.21152,0.130722 1.54708,0.0541 2.58909,-0.14853 z m 5.03698,-0.5629 c 0.18171,-0.09568 0.27341,-0.282473 0.22247,-0.45317 -0.0477,-0.159717 -1.06738,-3.617081 -2.26605,-7.683031 -1.19867,-4.065951 -2.25597,-7.489344 -2.34957,-7.607541 -0.24396,-0.308099 -3.37296,-0.299364 -3.49157,0.0097 -0.0838,0.218406 4.27078,15.18917 4.60267,15.823634 0.14929,0.285401 0.30769,0.30511 1.56949,0.195288 0.77189,-0.06718 1.54254,-0.195398 1.71256,-0.284926 z m 4.67726,-0.424934 c 0.24303,-0.243032 0.009,-1.316192 -0.79675,-3.653003 -0.18275,-0.53002 -1.03642,-3.323299 -1.89706,-6.207287 -0.86063,-2.883988 -1.64131,-5.340321 -1.73483,-5.458518 -0.2479,-0.313298 -3.37304,-0.298838 -3.49392,0.01616 -0.0786,0.204948 3.97569,14.222107 4.39684,15.201308 0.15776,0.366807 0.25743,0.387586 1.73098,0.360857 1.04741,-0.019 1.63989,-0.104671 1.79474,-0.259523 z m 0.9394,-3.026398 c 0.0875,-0.212753 0.40069,-1.723918 0.69605,-3.358147 l 0.53703,-2.971323 -0.80423,-2.788058 c -0.44233,-1.533431 -0.91861,-2.969578 -1.0584,-3.191434 -0.24074,-0.382084 -0.33461,-0.400236 -1.77825,-0.343844 -0.85663,0.03346 -1.61227,0.147805 -1.72545,0.261096 -0.15389,0.15404 -0.0515,0.741786 0.43423,2.492866 0.92794,3.345195 2.86893,10.00678 2.95937,10.156727 0.15955,0.264529 0.586,0.115844 0.73965,-0.257883 z m 1.68399,-9.4557 c 0.22615,-0.280469 0.61783,-2.643846 0.49235,-2.970829 -0.1245,-0.324448 -1.53673,-0.344549 -1.8014,-0.02564 -0.13899,0.167468 -0.0943,0.562307 0.17007,1.504316 0.35073,1.24948 0.57478,1.707057 0.83588,1.707057 0.0714,0 0.2078,-0.09671 0.3031,-0.214903 z"
         id="path6126"
         sodipodi:nodetypes="sscsssssscsscccsscccsssssscsscsscsscscscsscssscssssssssssssscssssssssscsssssssssssscssssscssssssssssssssssssssssssssssssscssssssssscsssssssssssscsssssscssssccsssssccsssscsssssscsssssssssscsss" /><path
         style="display:inline;fill:#333333;fill-opacity:1;stroke:#666666;stroke-width:0.171922"
         d="m 56.260625,123.4738 c -0.366568,-0.13365 -0.469845,-0.27091 -0.429804,-0.57124 0.07634,-0.57256 12.187341,-12.35096 13.17986,-12.81789 0.411831,-0.19375 1.18548,-0.42929 1.719218,-0.52342 0.533738,-0.0941 1.389501,-0.24464 1.901696,-0.33445 0.574303,-0.1007 20.919745,-0.16329 53.078685,-0.16329 h 52.14745 l 1.62983,0.42346 c 0.8964,0.23291 1.93226,0.57776 2.3019,0.76634 0.36964,0.18857 2.7898,2.21472 5.37813,4.50255 2.58834,2.28783 5.64786,4.97955 6.79895,5.9816 2.23989,1.94988 2.53928,2.44436 1.6782,2.77174 -0.62489,0.23758 -138.731583,0.20251 -139.384115,-0.0354 z m 84.024205,-1.95824 c 0.31496,-0.31496 0.38524,-2.63201 0.0962,-3.17205 -0.0957,-0.17876 -0.46315,-0.40534 -0.81663,-0.50351 -0.86865,-0.24124 -26.53275,-0.24572 -27.40017,-0.005 -0.73563,0.20434 -0.83029,0.4464 -0.83362,2.13179 -0.004,2.01587 -1.58947,1.81871 14.62537,1.81871 12.55138,0 14.08763,-0.029 14.32883,-0.27016 z"
         id="path6122"
         sodipodi:nodetypes="ssscsscsssssscsscsscc" /><text
         xml:space="preserve"
         style="font-style:normal;font-variant:normal;font-weight:normal;font-stretch:normal;font-size:22.5778px;font-family:'Comic Sans MS';-inkscape-font-specification:'Comic Sans MS, Normal';font-variant-ligatures:normal;font-variant-caps:normal;font-variant-numeric:normal;font-variant-east-asian:normal;fill:#ffffff;stroke:#ffffff;stroke-width:0.264583;stroke-opacity:0"
         x="-52.717567"
         y="58.901749"
         id="text301"><tspan
           sodipodi:role="line"
           id="tspan299"
           style="font-style:normal;font-variant:normal;font-weight:normal;font-stretch:normal;font-size:22.5778px;font-family:'Comic Sans MS';-inkscape-font-specification:'Comic Sans MS, Normal';font-variant-ligatures:normal;font-variant-caps:normal;font-variant-numeric:normal;font-variant-east-asian:normal;fill:#ffffff;stroke:#ffffff;stroke-width:0.264583"
           x="-52.717567"
           y="58.901749">Saranam</tspan><tspan
           sodipodi:role="line"
           style="font-style:normal;font-variant:normal;font-weight:normal;font-stretch:normal;font-size:22.5778px;font-family:'Comic Sans MS';-inkscape-font-specification:'Comic Sans MS, Normal';font-variant-ligatures:normal;font-variant-caps:normal;font-variant-numeric:normal;font-variant-east-asian:normal;fill:#ffffff;stroke:#ffffff;stroke-width:0.264583"
           x="-52.717567"
           y="87.124001"
           id="tspan303">Shopping</tspan><tspan
           sodipodi:role="line"
           style="font-style:normal;font-variant:normal;font-weight:normal;font-stretch:normal;font-size:22.5778px;font-family:'Comic Sans MS';-inkscape-font-specification:'Comic Sans MS, Normal';font-variant-ligatures:normal;font-variant-caps:normal;font-variant-numeric:normal;font-variant-east-asian:normal;fill:#ffffff;stroke:#ffffff;stroke-width:0.264583"
           x="-52.717567"
           y="115.34625"
           id="tspan355">Network</tspan></text></g></g></svg>
